# AST/ASF file generated using VICON BodyLanguage
# -----------------------------------------------
:version 1.10
:name VICON
:units
  mass 1.0
  length 0.45
  angle deg
:documentation
   .ast/.asf automatically generated from VICON data using
   VICON BodyBuilder and BodyLanguage model FoxedUp or BRILLIANT.MOD
:root
   order TX TY TZ RX RY RZ
   axis XYZ
   position 0 0 0  
   orientation 0 0 0 
:bonedata
  begin
     id 1 
     name lhipjoint
     direction 0.822369 -0.411937 0.392449 
     length 3.8167 
     axis 0 0 0  XYZ
  end
  begin
     id 2 
     name lfemur
     direction 0.34202 -0.939693 0  
     length 6.16791  
     axis 0 0 20  XYZ
    dof rx ry rz
    limits (-160.0 20.0)
           (-70.0 70.0)
           (-60.0 70.0)
  end
  begin
     id 3 
     name ltibia
     direction 0.34202 -0.939693 0   
     length 7.07101   
     axis 0 0 20   XYZ
    dof rx
    limits (-10.0 170.0)
  end
  begin
     id 4 
     name lfoot
     direction 0.028254 -0.0776273 0.996582   
     length 1.66799   
     axis -90 7.62852e-016 20   XYZ
    dof rx rz
    limits (-45.0 90.0)
           (-70.0 20.0)
  end
  begin
     id 5 
     name ltoes
     direction 1.53483e-011 -4.21688e-011 1   
     length 0.851674   
     axis -90 7.62852e-016 20   XYZ
    dof rx
    limits (-90.0 20.0)
  end
  begin
     id 6 
     name rhipjoint
     direction -0.822466 -0.411836 0.392353   
     length 3.81764  
     axis 0 0 0  XYZ 
  end
  begin
     id 7 
     name rfemur
     direction -0.34202 -0.939693 0   
     length 6.28636   
     axis 0 0 -20   XYZ
    dof rx ry rz
    limits (-160.0 20.0)
           (-70.0 70.0)
           (-70.0 60.0)
  end
  begin
     id 8 
     name rtibia
     direction -0.34202 -0.939693 0   
     length 6.85621   
     axis 0 0 -20   XYZ
    dof rx
    limits (-10.0 170.0)
 end
 begin
     id 9 
     name rfoot
     direction -0.0553036 -0.151945 0.98684   
     length 1.57293  
     axis -90 -7.62852e-016 -20   XYZ
    dof rx rz
    limits (-45.0 90.0)
           (-20.0 70.0)
  end
  begin
     id 10 
     name rtoes
     direction -1.53592e-011 -4.21964e-011 1   
     length 0.802812   
     axis -90 -7.62852e-016 -20   XYZ
    dof rx
    limits (-90.0 20.0)
  end
  begin
     id 11 
     name lowerback
     direction 0.00654913 0.996475 -0.0836396   
     length 1.97212   
     axis 0 0 0   XYZ
    dof rx ry rz
    limits (-20.0 45.0)
           (-30.0 30.0)
           (-30.0 30.0)
  end
  begin
     id 12 
     name upperback
     direction 0.0111875 0.994527 0.103877   
     length 1.89704   
     axis 0 0 0   XYZ
    dof rx ry rz
    limits (-20.0 45.0)
           (-30.0 30.0)
           (-30.0 30.0)
  end
  begin
     id 13 
     name thorax
     direction 0.00473652 0.989004 0.147814   
     length 1.94516   
     axis 0 0 0   XYZ
    dof rx ry rz
    limits (-20.0 45.0)
           (-30.0 30.0)
           (-30.0 30.0)
  end
  begin
     id 14 
     name lowerneck
     direction -0.00925808 0.999011 0.0434791   
     length 1.81771   
     axis 0 0 0   XYZ
    dof rx ry rz
    limits (-20.0 45.0)
           (-30.0 30.0)
           (-30.0 30.0)
  end
  begin
     id 15 
     name upperneck
     direction 0.00451595 0.964412 -0.264365   
     length 1.80434   
     axis 0 0 0   XYZ
    dof rx ry rz
    limits (-20.0 45.0)
           (-30.0 30.0)
           (-30.0 30.0)
  end
  begin
     id 16
     name head
     direction -0.00110849 0.995756 -0.0920241  
     length 1.84006  
     axis 0 0 0   XYZ
    dof rx ry rz
    limits (-20.0 45.0)
           (-30.0 30.0)
           (-30.0 30.0)
  end
  begin
     id 17 
     name lclavicle
     direction 0.921253 0.385213 0.0538957  
     length 3.67415  
     axis 0 0 0   XYZ
    dof ry rz
    limits (-20.0 10.0)
           (0.0 20.0)
  end
  begin
     id 18 
     name lhumerus
     direction 1 -4.48961e-011 6.73441e-028   
     length 4.32712   
     axis 180 -30 -90   XYZ
    dof rx ry rz
    limits (-60.0 90.0)
           (-90.0 90.0)
           (-90.0 90.0)
  end
  begin
     id 19
     name lradius
     direction 1 -4.48985e-011 -9.53507e-028   
     length 3.28587   
     axis 180 -30 -90   XYZ
    dof rx
    limits (-10.0 170.0)
  end
  begin
     id 20
     name lwrist
     direction 1 -4.48951e-011 -4.67472e-027   
     length 1.64293   
     axis 1.65735e-015 90 90   XYZ
    dof ry
    limits (-180.0 0.0)
 end
  begin
     id 21 
     name lhand
     direction 1 -4.48946e-011 -9.34945e-027   
     length 0.433158   
     axis 5.96574e-015 90 90   XYZ
    dof rx rz
    limits (-90.0 90.0)
           (-45.0 45.0)
  end
  begin
     id 22 
     name lfingers
     direction 1 -4.48882e-011 -1.86989e-026   
     length 0.349224   
     axis 1.19315e-014 90 90   XYZ
    dof rx
    limits (0.0 90.0)
  end
  begin
     id 23
     name lthumb
     direction 0.707107 -6.3493e-011 0.707107   
     length 0.501417   
     axis -90 45 2.85299e-015   XYZ
    dof rx rz
    limits (-45.0 45.0)
           (-45.0 45.0)
  end
  begin
     id 24 
     name rclavicle
     direction -0.884378 0.46502 -0.0403866   
     length 3.50218  
     axis 0 0 0   XYZ 
    dof ry rz
    limits (-10.0 20.0)
           (-20.0 0.0)
  end
  begin
     id 25 
     name rhumerus
     direction -1 -4.48964e-011 1.58188e-027  
     length 4.29104   
     axis 180 30 90   XYZ
    dof rx ry rz
    limits (-90.0 60.0)
           (-90.0 90.0)
           (-90.0 90.0)
  end
  begin
     id 26 
     name rradius
     direction -1 -4.48978e-011 -1.9722e-027   
     length 3.2272   
     axis 180 30 90   XYZ
    dof rx
    limits (-10.0 170.0)
  end
  begin
     id 27 
     name rwrist
     direction -1 -4.48969e-011 -4.67472e-027   
     length 1.6136   
     axis 1.65735e-015 -90 -90   XYZ
    dof ry
    limits (-180.0 0.0)
  end
  begin
     id 28
     name rhand
     direction -1 -4.48846e-011 -9.34945e-027   
     length 0.543623   
     axis 5.96574e-015 -90 -90   XYZ
    dof rx rz
    limits (-90.0 90.0)
           (-45.0 45.0)
  end
  begin
     id 29
     name rfingers
     direction -1 -4.49074e-011 -1.86989e-026   
     length 0.438283   
     axis 1.19315e-014 -90 -90   XYZ
    dof rx
    limits (0.0 90.0)
  end
  begin
     id 30
     name rthumb
     direction -0.707107 -6.34834e-011 0.707107   
     length 0.629289   
     axis -90 -45 -2.85299e-015   XYZ
    dof rx rz
    limits (-45.0 45.0)
           (-45.0 45.0)
  end
:hierarchy
  begin
    root lhipjoint rhipjoint lowerback
    lhipjoint lfemur
    lfemur ltibia
    ltibia lfoot
    lfoot ltoes
    rhipjoint rfemur
    rfemur rtibia
    rtibia rfoot
    rfoot rtoes
    lowerback upperback
    upperback thorax
    thorax lowerneck lclavicle rclavicle
    lowerneck upperneck
    upperneck head
    lclavicle lhumerus
    lhumerus lradius
    lradius lwrist
    lwrist lhand lthumb
    lhand lfingers
    rclavicle rhumerus
    rhumerus rradius
    rradius rwrist
    rwrist rhand rthumb
    rhand rfingers
  end

#!OML:ASF H:\GeneralSubjects\Female5\Project 1\Capture day 1\Session 1\Female5.ASF
:FULLY-SPECIFIED
:DEGREES
1
root -26.4849 16.1714 2.52375 -164.622 50.9589 -173.307
lowerback 7.00132 3.98594 7.08443
upperback -9.9203 6.76538 -1.24407
thorax -13.9621 2.56072 -6.60733
lowerneck -11.4949 6.5438 12.5801
upperneck 24.1977 8.37259 -3.78359
head 10.3421 4.91591 -2.30995
rclavicle 1.48592e-014 -2.38542e-015
rhumerus -46.7312 9.87136 -83.1882
rradius 28.7824
rwrist -12.4169
rhand -22.9213 -18.5603
rfingers 7.12502
rthumb 3.51912 -48.5109
lclavicle 1.48592e-014 -2.38542e-015
lhumerus -46.7249 2.74751 69.4974
lradius 36.6144
lwrist -3.84138
lhand -22.9214 29.6787
lfingers 7.12502
lthumb 3.51903 59.6294
rfemur 12.629 34.3307 42.482
rtibia -11.0292
rfoot -58.419 -28.994
rtoes 36.5554
lfemur -11.6901 -28.1018 -19.7275
ltibia 7.82857
lfoot -9.70907 4.98932
ltoes -60.6527
2
root -26.4739 16.1712 2.50742 -164.655 51.0251 -173.322
lowerback 6.98142 3.98829 7.02923
upperback -9.94038 6.76346 -1.2376
thorax -13.98 2.56547 -6.5691
lowerneck -11.3407 6.48392 12.1223
upperneck 24.1311 8.28053 -3.28159
head 10.2348 4.89063 -2.07725
rclavicle -7.65818e-014 -1.82882e-014
rhumerus -46.8185 9.82601 -83.1144
rradius 28.8443
rwrist -12.24
rhand -23.065 -18.6124
rfingers 7.12502
rthumb 3.38032 -48.5653
lclavicle -7.65818e-014 -1.82882e-014
lhumerus -46.7817 2.9085 69.4481
lradius 36.5335
lwrist -3.94357
lhand -22.9559 29.3004
lfingers 7.12502
lthumb 3.48564 59.2517
rfemur 12.7176 34.3708 42.4565
rtibia -11.0187
rfoot -58.3842 -29.159
rtoes 36.2326
lfemur -11.6617 -27.9632 -19.8314
ltibia 8.01168
lfoot -9.91597 4.98119
ltoes -60.6689
3
root -26.4606 16.1712 2.49188 -164.673 51.1044 -173.268
lowerback 6.98524 3.99451 6.99244
upperback -9.9285 6.76661 -1.22091
thorax -13.9728 2.57203 -6.53006
lowerneck -11.1552 6.50711 12.4468
upperneck 24.0033 8.38537 -3.76033
head 10.1989 4.91527 -2.29115
rclavicle -7.64824e-014 -1.98785e-014
rhumerus -46.9089 9.83699 -83.1001
rradius 28.925
rwrist -12.1669
rhand -22.9948 -18.5808
rfingers 7.12502
rthumb 3.44811 -48.5327
lclavicle -7.64824e-014 -1.98785e-014
lhumerus -46.8122 3.01234 69.3976
lradius 36.4902
lwrist -4.02985
lhand -23.1881 29.3028
lfingers 7.12502
lthumb 3.2615 59.2576
rfemur 12.902 34.4175 42.5375
rtibia -11.0364
rfoot -58.4292 -29.1438
rtoes 36.0357
lfemur -11.5499 -27.8517 -19.9167
ltibia 8.2207
lfoot -10.182 4.88559
ltoes -60.7333
4
root -26.4489 16.1689 2.47446 -164.729 51.2354 -173.318
lowerback 6.91481 4.03167 6.89711
upperback -9.90492 6.79123 -1.24419
thorax -13.9011 2.5971 -6.4966
lowerneck -11.2951 6.43711 12.3748
upperneck 24.1435 8.26502 -3.65647
head 10.2574 4.86756 -2.25409
rclavicle -1.77912e-014 -1.07344e-014
rhumerus -46.9735 9.91664 -83.1313
rradius 29.0112
rwrist -12.2587
rhand -22.7847 -18.6482
rfingers 7.12502
rthumb 3.65105 -48.5967
lclavicle -1.77912e-014 -1.07344e-014
lhumerus -46.7699 3.16354 69.3326
lradius 36.4723
lwrist -4.15473
lhand -23.383 29.809
lfingers 7.12502
lthumb 3.07327 59.7666
rfemur 13.0465 34.5115 42.521
rtibia -11.0273
rfoot -58.5391 -29.0285
rtoes 35.9542
lfemur -11.3962 -27.9032 -20.0888
ltibia 8.30836
lfoot -10.434 4.92387
ltoes -60.7363
5
root -26.4391 16.1673 2.45706 -164.695 51.3621 -173.295
lowerback 6.85014 4.06353 6.86795
upperback -9.91614 6.82537 -1.2612
thorax -13.8689 2.61826 -6.49802
lowerneck -10.8576 6.66996 12.3586
upperneck 23.8715 8.63062 -3.56278
head 10.104 5.04521 -2.1833
rclavicle 5.68027e-014 3.02153e-014
rhumerus -46.9911 9.98343 -83.1192
rradius 29.02
rwrist -12.3802
rhand -22.7499 -18.7275
rfingers 7.12502
rthumb 3.68458 -48.6754
lclavicle 5.68027e-014 3.02153e-014
lhumerus -46.7861 3.28969 69.2774
lradius 36.4264
lwrist -4.25768
lhand -23.2889 30.2887
lfingers 7.12502
lthumb 3.16412 60.245
rfemur 13.1279 34.6281 42.5484
rtibia -10.9619
rfoot -58.651 -28.9329
rtoes 35.8496
lfemur -11.292 -27.8913 -20.1651
ltibia 8.28022
lfoot -10.5189 4.93735
ltoes -60.6953
6
root -26.4282 16.1665 2.44046 -164.52 51.4591 -173.068
lowerback 6.85433 4.06903 7.02425
upperback -9.94882 6.856 -1.29051
thorax -13.8884 2.61333 -6.6246
lowerneck -10.8764 6.59529 12.6205
upperneck 24.0133 8.50612 -3.64773
head 10.1659 5.00907 -2.26989
rclavicle -3.00662e-014 -2.74323e-014
rhumerus -46.952 9.84554 -83.0737
rradius 28.9151
rwrist -12.2168
rhand -23.0068 -18.8696
rfingers 7.12502
rthumb 3.4365 -48.8217
lclavicle -3.00662e-014 -2.74323e-014
lhumerus -46.8445 3.13418 69.2387
lradius 36.3416
lwrist -4.21937
lhand -22.5106 29.8005
lfingers 7.12502
lthumb 3.91568 59.7442
rfemur 13.2158 34.7421 42.7294
rtibia -10.889
rfoot -58.7355 -28.755
rtoes 35.8921
lfemur -11.1636 -27.8471 -20.0894
ltibia 8.26363
lfoot -10.5612 4.86907
ltoes -60.5996
7
root -26.4158 16.1651 2.42237 -164.457 51.5893 -172.997
lowerback 6.86659 4.09358 7.15803
upperback -9.99054 6.89884 -1.41649
thorax -13.9114 2.60922 -6.84969
lowerneck -10.6922 6.6122 13.0672
upperneck 23.9149 8.55661 -4.01719
head 10.1399 5.03366 -2.47127
rclavicle -6.4605e-015 -5.96354e-015
rhumerus -46.9416 9.46975 -82.9925
rradius 28.863
rwrist -11.6928
rhand -22.9927 -19.3166
rfingers 7.12502
rthumb 3.45016 -49.2684
lclavicle -6.4605e-015 -5.96354e-015
lhumerus -46.8124 2.89466 69.1086
lradius 36.2142
lwrist -4.22626
lhand -23.0149 29.3588
lfingers 7.12502
lthumb 3.4287 59.3109
rfemur 13.337 34.8659 42.8168
rtibia -10.8677
rfoot -58.7573 -28.6887
rtoes 36.0426
lfemur -11.0234 -27.8861 -20.1459
ltibia 8.29292
lfoot -10.6012 4.77305
ltoes -60.4191
8
root -26.4044 16.1643 2.40387 -164.473 51.743 -173.072
lowerback 6.81337 4.13094 7.12832
upperback -10.0133 6.93566 -1.49015
thorax -13.8924 2.62686 -6.91634
lowerneck -10.8808 6.57529 12.8296
upperneck 24.2326 8.46571 -3.64683
head 10.2543 5.02202 -2.30546
rclavicle -7.95139e-015 -3.22031e-014
rhumerus -46.9467 9.3724 -82.9236
rradius 28.869
rwrist -11.4821
rhand -22.8765 -19.4988
rfingers 7.12502
rthumb 3.56239 -49.4488
lclavicle -7.95139e-015 -3.22031e-014
lhumerus -46.7703 2.84569 69.0409
lradius 36.1256
lwrist -4.27464
lhand -22.7651 29.354
lfingers 7.12502
lthumb 3.66994 59.3021
rfemur 13.4015 35.0019 42.768
rtibia -10.8347
rfoot -58.7979 -28.7085
rtoes 36.0559
lfemur -10.9584 -27.9986 -20.2993
ltibia 8.38005
lfoot -10.6931 4.74602
ltoes -60.2974
9
root -26.3947 16.1659 2.38565 -164.4 51.901 -173.093
lowerback 6.66673 4.16087 6.99194
upperback -10.0134 6.95317 -1.4431
thorax -13.8155 2.66021 -6.77409
lowerneck -10.8326 6.58899 12.7864
upperneck 24.3082 8.54873 -3.78031
head 10.2827 5.04794 -2.33524
rclavicle -5.61567e-015 -3.77691e-014
rhumerus -46.8957 9.65437 -82.8809
rradius 28.807
rwrist -11.6617
rhand -23.0434 -19.2745
rfingers 7.12502
rthumb 3.40118 -49.2271
lclavicle -5.61567e-015 -3.77691e-014
lhumerus -46.8262 2.9078 69.1251
lradius 36.143
lwrist -4.19772
lhand -22.67 29.5148
lfingers 7.12502
lthumb 3.76176 59.4613
rfemur 13.3422 35.1674 42.6779
rtibia -10.7245
rfoot -58.8976 -28.5269
rtoes 36.0795
lfemur -10.9764 -28.2935 -20.3755
ltibia 8.4754
lfoot -11.0493 5.07384
ltoes -60.416
10
root -26.3862 16.1677 2.36714 -164.307 52.0744 -173.045
lowerback 6.5822 4.18474 6.95206
upperback -10.0207 6.97616 -1.43409
thorax -13.772 2.68005 -6.73603
lowerneck -11.4114 6.61918 12.1377
upperneck 25.2261 8.4708 -2.7319
head 10.645 5.09977 -1.83805
rclavicle -4.3832e-014 -1.03368e-014
rhumerus -46.823 9.71034 -82.8114
rradius 28.671
rwrist -11.703
rhand -23.0408 -19.1567
rfingers 7.12502
rthumb 3.40372 -49.1093
lclavicle -4.3832e-014 -1.03368e-014
lhumerus -46.8843 3.10501 69.0043
lradius 36.137
lwrist -4.27978
lhand -22.6018 29.3524
lfingers 7.12502
lthumb 3.82763 59.2978
rfemur 13.3224 35.3451 42.6491
rtibia -10.6059
rfoot -58.9202 -28.3367
rtoes 36.2365
lfemur -11.0088 -28.5734 -20.3948
ltibia 8.57002
lfoot -11.4944 5.52317
ltoes -60.5819
11
root -26.3775 16.168 2.34986 -164.246 52.2543 -172.969
lowerback 6.60262 4.17503 6.94355
upperback -10.0336 6.96492 -1.42896
thorax -13.8038 2.67335 -6.7277
lowerneck -11.4205 6.62654 12.5178
upperneck 25.5175 8.55938 -3.19514
head 10.8032 5.13958 -2.0474
rclavicle -1.95803e-014 -2.38542e-015
rhumerus -46.7602 9.40012 -82.561
rradius 28.5826
rwrist -11.4255
rhand -22.6248 -19.073
rfingers 7.12502
rthumb 3.80547 -49.0188
lclavicle -1.95803e-014 -2.38542e-015
lhumerus -46.9408 3.36544 68.7682
lradius 36.0431
lwrist -4.47512
lhand -22.8579 29.2777
lfingers 7.12502
lthumb 3.58031 59.2274
rfemur 13.3957 35.5135 42.6835
rtibia -10.5372
rfoot -58.8623 -28.3734
rtoes 36.337
lfemur -10.8916 -28.2719 -20.4175
ltibia 8.43915
lfoot -11.1194 4.24547
ltoes -60.2284
